<?xml version="1.0" standalone="no"?>
<!DOCTYPE svg PUBLIC "-//W3C//DTD SVG 20010904//EN"
 "http://www.w3.org/TR/2001/REC-SVG-20010904/DTD/svg10.dtd">
<svg version="1.0" xmlns="http://www.w3.org/2000/svg"
 width="475.000000pt" height="475.000000pt" viewBox="0 0 475.000000 475.000000"
 preserveAspectRatio="xMidYMid meet">
<metadata>
Created by potrace 1.11, written by Peter Selinger 2001-2013
</metadata>
<g transform="translate(0.000000,475.000000) scale(0.100000,-0.100000)"
fill="#000000" stroke="none">
<path d="M2758 4301 c-2 -6 -16 -12 -33 -15 -16 -2 -30 -5 -30 -6 0 -1 -11 -4
-25 -6 -74 -13 -199 -110 -257 -199 -81 -123 -131 -337 -109 -470 11 -72 14
-82 40 -147 14 -36 26 -69 26 -75 0 -6 3 -13 8 -15 4 -1 17 -23 29 -48 12 -25
40 -77 62 -117 21 -40 46 -85 55 -100 30 -55 96 -225 102 -263 2 -8 6 -35 10
-60 7 -42 7 -110 0 -117 -2 -2 -15 1 -30 7 -66 25 -361 34 -447 14 -33 -8 -63
-13 -67 -13 -4 1 -9 0 -12 -1 -3 -1 -12 -3 -20 -5 -8 -1 -42 -10 -75 -20 -33
-9 -91 -22 -130 -30 -190 -36 -344 -140 -435 -295 -47 -81 -57 -111 -62 -175
-1 -16 -8 -37 -15 -46 -13 -15 -22 -31 -70 -123 -9 -16 -35 -48 -58 -73 -55
-57 -79 -134 -78 -256 l0 -88 -36 -23 c-44 -27 -93 -45 -146 -53 -22 -3 -49
-9 -60 -12 -25 -9 -199 -7 -280 3 -32 4 -86 17 -118 28 -154 53 -279 -27 -272
-175 4 -67 24 -106 87 -168 119 -117 338 -140 566 -59 45 16 82 26 82 22 0 -4
4 -2 8 4 4 6 41 27 82 47 41 20 91 47 110 59 78 49 82 50 97 28 34 -49 123
-119 157 -124 8 -1 18 -5 22 -8 3 -4 12 -4 19 -2 7 3 32 -8 56 -24 39 -26 72
-44 131 -73 10 -5 23 -9 29 -9 6 0 23 -9 38 -19 15 -11 44 -22 64 -26 36 -7
41 -16 14 -22 -7 -1 -39 -10 -72 -18 -88 -24 -99 -25 -225 -31 -227 -9 -235
-10 -296 -39 -61 -28 -114 -70 -114 -90 0 -6 -6 -17 -12 -23 -7 -7 -17 -32
-23 -55 -28 -111 78 -235 205 -240 26 0 47 -4 45 -7 -2 -3 22 -4 53 -4 32 1
57 3 57 3 0 1 18 4 40 7 22 2 47 6 55 7 8 2 37 7 64 12 27 4 61 14 75 21 14 8
34 14 44 14 28 0 181 56 264 96 107 53 158 88 266 184 43 38 57 45 96 47 25 1
80 4 121 8 41 3 95 8 120 10 25 2 61 6 81 9 20 3 57 7 81 10 151 18 367 100
472 181 27 20 71 41 108 50 76 20 140 54 192 101 21 20 42 32 45 27 23 -35
293 -183 333 -183 9 0 37 -9 63 -20 51 -22 71 -26 160 -37 146 -16 208 -7 321
49 89 43 125 102 118 189 -7 90 -53 155 -128 179 -38 12 -78 11 -266 -8 -117
-11 -215 -5 -276 18 -16 6 -31 11 -34 11 -16 -1 -63 15 -122 42 -70 31 -73 35
-68 96 1 14 23 44 51 72 51 50 54 57 51 153 0 32 -8 59 -24 82 -24 35 -94 75
-132 76 -37 0 -66 8 -66 18 0 12 -38 97 -58 128 -8 12 -16 48 -17 80 -3 80
-19 129 -65 201 -78 120 -177 196 -305 233 -27 8 -49 17 -49 21 1 3 -3 28 -8
54 -5 27 -11 59 -14 73 -2 14 -9 48 -14 75 -5 28 -12 66 -14 85 -3 19 -8 46
-11 60 -28 131 -24 238 12 332 33 84 89 130 177 144 59 9 159 54 194 88 38 36
73 88 88 133 22 63 7 218 -29 293 -35 75 -112 166 -187 221 -61 44 -204 97
-282 103 -26 2 -52 7 -59 12 -8 5 -10 3 -4 -7 7 -11 6 -12 -7 -2 -8 7 -18 10
-22 6 -11 -11 -38 -12 -57 -2 -11 5 -19 5 -21 0z"/>
</g>
</svg>
